<?xml version="1.0" standalone="no"?><!DOCTYPE svg PUBLIC "-//W3C//DTD SVG 1.1//EN" "http://www.w3.org/Graphics/SVG/1.1/DTD/svg11.dtd"><svg t="1575354524425" class="icon" viewBox="0 0 1266 1024" version="1.1" xmlns="http://www.w3.org/2000/svg" p-id="1383" xmlns:xlink="http://www.w3.org/1999/xlink" width="247.265625" height="200"><defs><style type="text/css"></style></defs><path d="M379.584489 97.054055L336.077069 231.425096a11.720722 11.720722 0 0 0 7.473362 14.734978 11.073031 11.073031 0 0 0 3.587213 0.572958 11.6709 11.6709 0 0 0 11.122853-8.083686l49.473654-152.929889A642.422615 642.422615 0 0 1 633.367392 45.139104c4.371917 0 8.718922 0.348757 13.02856 0.435946l-50.719214 186.398093a11.708266 11.708266 0 0 0 8.183331 14.361309 12.206491 12.206491 0 0 0 3.101445 0.411035 11.720722 11.720722 0 0 0 11.284776-8.594366l52.226342-191.816279c84.698098 4.745585 164.700433 25.571352 234.252518 58.765533l-43.407775 126.125431a11.683355 11.683355 0 0 0 7.236705 14.87199 11.508977 11.508977 0 0 0 3.811414 0.647691 11.695811 11.695811 0 0 0 11.060575-7.871941l42.411327-123.185909c100.603902 53.33489 176.583078 133.299859 207.871552 228.062083H133.088114c35.162166-106.570136 126.723301-194.481779 246.496375-246.695665z" fill="#F9BA8F" p-id="1384"></path><path d="M997.307644 837.626818l-0.460858 14.946724c0 0.560502 1.145915 34.315185-23.777745 60.322483-18.347103 19.144261-45.37576 28.859631-80.313725 28.859631-100.167956 0-104.938452-88.198122-104.988275-89.08247v-8.469809c-0.373668-2.491121-5.854133-36.046514-51.254804-36.046514-41.203133 0-45.363305 35.722668-45.525228 37.254707v15.357758c-2.341653 23.030409-20.98769 64.407921-75.082372 64.407921-59.11429 0-75.692697-42.772539-76.215832-65.454192v-19.368462c0-37.541186-38.612368-39.459349-46.322386-39.459349H129.052498v115.837105a65.890138 65.890138 0 0 0 65.82786 65.840315h877.02389A65.915049 65.915049 0 0 0 1137.757018 916.732351v-112.22498h-99.64482c-37.491364-0.024911-40.692454 31.699509-40.804554 33.119447z" fill="#DEB198" p-id="1385"></path><path d="M129.052498 699.967499v77.548581h363.877974a89.680339 89.680339 0 0 1 36.79385 8.083686c15.258113 7.274072 33.443293 22.706564 33.443293 54.804652v19.169172c0.137012 4.02316 2.964433 42.349049 52.811755 42.349049 46.82061 0 51.603562-40.542986 51.790396-42.26186l-0.049822-15.432491c2.129908-21.373814 19.194084-59.463047 68.842115-59.463047 54.057315 0 72.429329 38.089233 74.584148 58.205031v9.279424c0.1121 2.154819 4.222449 66.101883 81.609109 66.101883 28.199484 0 49.461198-7.199338 63.249549-21.411181 18.085535-18.683404 17.437844-44.030555 17.437844-44.267212l0.51068-16.54104c1.681506-19.468107 17.213643-55.053763 64.208631-55.053763h99.644821v-81.148251H129.052498z" fill="#FAE58F" p-id="1386"></path><path d="M1166.865762 572.322483H99.968666a56.697903 56.697903 0 1 1 0-113.345983h1066.909551a56.697903 56.697903 0 0 1 0 113.345983z" fill="#F16A6D" p-id="1387"></path><path d="M1149.502652 385.152143H117.369143a31.574953 31.574953 0 0 1-30.429037-40.019851C142.21807 145.194959 372.073761 0.024911 633.454581 0.024911s491.174232 145.157593 546.477108 345.132292a31.550041 31.550041 0 0 1-30.429037 39.99494z m-987.480174-63.124994h942.889116C1038.822167 169.832141 848.587749 63.174816 633.454581 63.174816s-405.417409 106.657325-471.432103 258.852333zM1071.904248 1024H194.917725a109.235635 109.235635 0 0 1-109.123534-109.148445V787.380918a31.562497 31.562497 0 0 1 31.562497-31.550042h375.548873c43.694254 0 90.12874 25.882742 90.128741 82.705201v19.169173c0.709969 9.491169 7.012504 22.420085 32.957524 22.420085s30.852528-17.25101 31.799153-23.192333v-14.510777a31.624775 31.624775 0 0 1 0.161923-3.263367c3.151267-30.578504 29.370311-76.078821 88.559335-76.078821 68.20688 0 91.523768 49.71031 94.338734 75.979176a27.58916 27.58916 0 0 1 0.199289 3.375468v6.925315c0.946626 11.907556 8.382621 47.33129 61.680144 47.33129 22.74393 0 39.260059-5.231353 49.112441-15.519681 11.745633-12.231402 11.770544-29.233299 11.770545-29.382766v-2.354109l0.498224-15.718971c0-0.560502 0-1.13346 0.1121-1.743784 2.553399-29.133654 27.028658-72.541429 83.963217-72.54143h111.303265a31.562497 31.562497 0 0 1 31.550041 31.574953v123.846057a109.297913 109.297913 0 0 1-109.135989 109.148445zM148.93164 818.943415v95.90814a46.08573 46.08573 0 0 0 45.986085 45.986084h876.986523a46.08573 46.08573 0 0 0 46.010996-45.986084v-92.296016h-79.715857c-17.014353 0-20.377366 9.503625-21.000146 14.24921l-0.423491 13.813263c0.074734 8.718922-1.320294 45.027003-29.320488 74.260303-22.258162 23.192332-54.119593 34.950421-94.66258 34.95042-88.310222 0-123.036442-64.644577-124.805138-108.11463v-6.82567c-1.482217-7.000049-7.784752-18.683404-31.375663-18.683404-20.315088 0-24.674549 12.679803-25.571352 18.235002v14.535688a32.708412 32.708412 0 0 1-0.161922 3.300735c-2.951978 28.000195-26.542889 80.961417-94.812047 80.961417-69.091228 0-95.335182-50.769036-96.094974-84.860021v-19.928964c0-13.003649-8.8933-19.592663-26.4557-19.592663H148.93164z" fill="#434B56" p-id="1388"></path><path d="M347.224833 264.793655a31.612319 31.612319 0 0 1-30.042913-41.228044l51.329538-158.659466a31.574953 31.574953 0 0 1 60.060916 19.368462l-51.304627 158.659466a31.599864 31.599864 0 0 1-30.042914 21.859582zM606.998881 264.793655a31.612319 31.612319 0 0 1-30.47886-39.857928l54.891841-201.606383a31.587408 31.587408 0 0 1 60.945263 16.590862l-54.929207 201.606384a31.574953 31.574953 0 0 1-30.429037 23.267065zM872.402861 264.793655a31.624775 31.624775 0 0 1-29.893446-41.888191l47.206733-137.086362a31.578689 31.578689 0 1 1 59.712159 20.576655l-47.156911 137.098818a31.637231 31.637231 0 0 1-29.868535 21.29908zM1149.502652 718.053034H117.369143a31.574953 31.574953 0 0 1 0-63.149906h1032.133509a31.574953 31.574953 0 0 1 0 63.149906zM1166.903128 613.79964H99.968666a99.981122 99.981122 0 0 1 0-199.949788h1066.934462a99.981122 99.981122 0 0 1 0 199.949788zM99.968666 477.012212a36.831217 36.831217 0 1 0 0 73.662434h1066.934462a36.831217 36.831217 0 0 0 0-73.662434z" fill="#434B56" p-id="1389"></path></svg>